<svg xmlns="http://www.w3.org/2000/svg" width="158" height="67"><path fill-rule="evenodd" fill="#68b0c9" d="M8.57 11l3.582 5.99 1.72-1.01-3.582-5.989-1.72 1.01zm5.94 9.604l3.654 5.947 1.708-1.03-3.654-5.946-1.708 1.03zm6.75 10.03l4.135 5.629 1.616-1.166-4.134-5.63-1.616 1.166zm8.81 9.765l4.962 4.928 1.414-1.402-4.963-4.927-1.413 1.401zm9.887 9.972l5.587 4.217 1.208-1.58-5.587-4.217-1.208 1.58zm11.415 7.455l6.257 3.152.9-1.77-6.257-3.152-.9 1.77zm29.724 7.18l7.004.218.055-1.985-7.004-.22-.055 1.986zm12.48.188l6.991-.432-.132-1.982-6.991.431.132 1.983zm14.138-2.559l6.94-.936-.278-1.968-6.94.936.278 1.968zm13.575-3.484l6.692-2.036-.594-1.9-6.692 2.036.594 1.9zm11.713-3.989l6.26-3.1-.9-1.778-6.26 3.1.9 1.778zm10.844-5.415l12.404-9.288-1.065-1.687-12.404 9.289 1.065 1.686zm-1.332-9.732l11.971 1.013.165-1.98-11.97-1.011-.166 1.978zm10.021 11.999l4.058-12.852-1.798-.882-4.057 12.852 1.797.882zM8.145 2.562c2.69.636 4.361 3.314 3.73 5.982-.63 2.669-3.323 4.316-6.014 3.68C3.17 11.588 1.5 8.91 2.13 6.241c.63-2.668 3.323-4.315 6.014-3.68zm-.457 1.932c1.614.381 2.617 1.989 2.239 3.59-.379 1.6-1.995 2.589-3.61 2.207C4.704 9.91 3.702 8.303 4.08 6.702c.378-1.601 1.994-2.59 3.609-2.208zm57.514 58.42l7.933 1.285.055-1.986-7.933-1.285-.055 1.986z"/></svg>