<svg xmlns="http://www.w3.org/2000/svg" width="26" height="23"><path fill-rule="evenodd" fill="#68b0c9" d="M4 13s-1.976.539-2-3c-.025-3.598 4-3 4-3h2s-2.9-.397-3-2c-.132-2.091 2.188-2.913 3-3 3.083-.33 3.937 3 3.937 3l2.036.006S16.343 2.019 18 2c1.849-.021 2.969.805 3.062 3.297C21.112 6.659 19 7 19 7h3s1.979.118 2 3c.017 2.336-2 3-2 3v9H4v-9zm2 1h5v6H6v-6zm9 0v6h5v-6h-5zm-4-5v3H5s-.943.116-1-1c-.095-1.864 1-2 1-2h6zm4 0v3h6s.926.105 1-1c.14-2.073-1-2-1-2h-6zm-4-3s-4.063.344-4-1c.062-1.344 2.312-1.875 3-1 .687.875 1 2 1 2zm4 0s1.656-2.094 3-2c1.344.094 2.219 1.438 1 2-1.219.562-4 0-4 0z"/></svg>