<svg xmlns="http://www.w3.org/2000/svg" width="67" height="107"><path fill-rule="evenodd" fill="#68b0c9" d="M5.5 1a4.5 4.5 0 110 9 4.5 4.5 0 010-9zm0 2a2.5 2.5 0 110 5 2.5 2.5 0 010-5zM9 4h7v2H9V4zm10.163-.456l6.939.929-.266 1.982-6.938-.928.265-1.983zm11.413 2.288l6.552 2.464-.704 1.872-6.552-2.464.704-1.872zm9.459 4.49l5.973 3.65-1.043 1.706-5.973-3.65 1.043-1.706zm8.742 5.471l4.88 5.02-1.434 1.394-4.88-5.02 1.434-1.394zm6.605 7.743l3.898 5.814-1.662 1.114-3.898-5.815 1.662-1.113zm6.265 10.827l1.65 6.803-1.945.471-1.648-6.804 1.943-.47zm4.025 11.19l-.346 6.992-1.998-.099.346-6.99 1.998.098zm-.51 11.208L63.8 63.627l-1.961-.389 1.36-6.866 1.962.39zm-3.277 11.49l-2.958 6.344-1.812-.846 2.958-6.344 1.812.845zm-5.504 9.523l-4.151 5.637-1.61-1.186 4.15-5.636 1.61 1.185zm-7.587 9.676l-5.272 4.606-1.316-1.506 5.272-4.606 1.316 1.506zm-10.682 7.096l-6.439 2.747-.785-1.84 6.439-2.746.785 1.84zm-11.014 4.008l-6.945.876-.25-1.984 6.944-.876.25 1.984zm-11.11 1.439l-13-.047.025-1.939 13 .046-.026 1.94zm-1.638-6.305L2.963 99.959l-.92-1.708 11.388-6.27.92 1.707zm-.917 12.238L2.01 99.724l.941-1.696 11.425 6.202-.942 1.696z"/></svg>